<svg width="11" height="18" viewBox="0 0 11 18" fill="none" xmlns="http://www.w3.org/2000/svg">
<path d="M4.84 17.76V16.18C3.64 16.0467 2.66667 15.6 1.92 14.84C1.17333 14.0667 0.8 13.0667 0.8 11.84H3.54C3.59333 12.6933 4.02667 13.2467 4.84 13.5V10.06L4.14 9.8C3.11333 9.42667 2.3 8.89333 1.7 8.2C1.1 7.49333 0.8 6.63333 0.8 5.62C0.8 4.43333 1.16 3.48 1.88 2.76C2.6 2.04 3.58667 1.64667 4.84 1.58V0.0399992H5.92V1.6C7.01333 1.76 7.90667 2.21333 8.6 2.96C9.29333 3.69333 9.64 4.56667 9.64 5.58H6.9C6.78 4.94 6.45333 4.52 5.92 4.32V7.48L6.62 7.74C7.74 8.15333 8.58667 8.71333 9.16 9.42C9.73333 10.1267 10.02 11.04 10.02 12.16C10.02 13.36 9.65333 14.32 8.92 15.04C8.2 15.7467 7.2 16.1333 5.92 16.2V17.76H4.84ZM7.28 12.18C7.28 11.4867 6.82667 10.9267 5.92 10.5V13.56C6.32 13.5067 6.64667 13.36 6.9 13.12C7.15333 12.8667 7.28 12.5533 7.28 12.18ZM3.54 5.58C3.54 5.91333 3.64 6.19333 3.84 6.42C4.05333 6.64667 4.38667 6.86 4.84 7.06V4.24C4.44 4.30667 4.12 4.46 3.88 4.7C3.65333 4.92667 3.54 5.22 3.54 5.58Z" fill="#0199E4"/>
<path d="M4.84 17.76V16.18C3.64 16.0467 2.66667 15.6 1.92 14.84C1.17333 14.0667 0.8 13.0667 0.8 11.84H3.54C3.59333 12.6933 4.02667 13.2467 4.84 13.5V10.06L4.14 9.8C3.11333 9.42667 2.3 8.89333 1.7 8.2C1.1 7.49333 0.8 6.63333 0.8 5.62C0.8 4.43333 1.16 3.48 1.88 2.76C2.6 2.04 3.58667 1.64667 4.84 1.58V0.0399992H5.92V1.6C7.01333 1.76 7.90667 2.21333 8.6 2.96C9.29333 3.69333 9.64 4.56667 9.64 5.58H6.9C6.78 4.94 6.45333 4.52 5.92 4.32V7.48L6.62 7.74C7.74 8.15333 8.58667 8.71333 9.16 9.42C9.73333 10.1267 10.02 11.04 10.02 12.16C10.02 13.36 9.65333 14.32 8.92 15.04C8.2 15.7467 7.2 16.1333 5.92 16.2V17.76H4.84ZM7.28 12.18C7.28 11.4867 6.82667 10.9267 5.92 10.5V13.56C6.32 13.5067 6.64667 13.36 6.9 13.12C7.15333 12.8667 7.28 12.5533 7.28 12.18ZM3.54 5.58C3.54 5.91333 3.64 6.19333 3.84 6.42C4.05333 6.64667 4.38667 6.86 4.84 7.06V4.24C4.44 4.30667 4.12 4.46 3.88 4.7C3.65333 4.92667 3.54 5.22 3.54 5.58Z" fill="#EA2938" fill-opacity="0.9"/>
</svg>
