<svg width="17" height="16" viewBox="0 0 17 16" fill="none" xmlns="http://www.w3.org/2000/svg">
<path d="M2.22 7.16H0.56L0.98 6.02H2.42C2.82 4.40667 3.68 3.09333 5 2.08C6.32 1.06667 7.84667 0.559999 9.58 0.559999C11.1 0.559999 12.4533 0.953332 13.64 1.74C14.8267 2.51333 15.7 3.6 16.26 5H13.12C12.3067 3.84 11.1333 3.26 9.6 3.26C8.57333 3.26 7.68 3.51333 6.92 4.02C6.17333 4.51333 5.63333 5.18 5.3 6.02H12.44L12.04 7.16H5C4.97333 7.48 4.96 7.72667 4.96 7.9C4.96 8.28667 4.97333 8.52667 5 8.62H11.52L11.14 9.74H5.28C5.61333 10.5933 6.16 11.2733 6.92 11.78C7.68 12.2867 8.57333 12.54 9.6 12.54C11.1333 12.54 12.3067 11.96 13.12 10.8H16.26C15.7 12.2 14.8267 13.2933 13.64 14.08C12.4533 14.8533 11.1 15.24 9.58 15.24C7.83333 15.24 6.3 14.7333 4.98 13.72C3.67333 12.7067 2.82 11.38 2.42 9.74H0.56L0.98 8.62H2.22C2.20667 8.46 2.2 8.22 2.2 7.9C2.2 7.56667 2.20667 7.32 2.22 7.16Z" fill="#0199E4"/>
</svg>
