<svg width="11" height="15" viewBox="0 0 11 15" fill="none" xmlns="http://www.w3.org/2000/svg">
<path d="M7.92969 10.1953V12.3535H4.05273V15H1.16211V12.3535H0.195312V10.1953H1.16211V9.02344H0.195312V6.73828H1.16211V0.683594H5.2832C6.81966 0.683594 7.92969 0.813802 8.61328 1.07422C9.30339 1.32812 9.86003 1.78385 10.2832 2.44141C10.6999 3.09245 10.9082 3.8444 10.9082 4.69727C10.9082 5.39388 10.8203 5.98633 10.6445 6.47461C10.4753 6.95638 10.2409 7.35677 9.94141 7.67578C9.64193 7.99479 9.28711 8.24544 8.87695 8.42773C8.4668 8.61003 8.02083 8.74674 7.53906 8.83789C7.05729 8.92253 6.55273 8.97461 6.02539 8.99414C5.50456 9.01367 4.97721 9.02344 4.44336 9.02344H4.05273V10.1953H7.92969ZM4.05273 6.73828H4.22852C5.61523 6.73828 6.48112 6.67969 6.82617 6.5625C7.17773 6.44531 7.44792 6.24349 7.63672 5.95703C7.83203 5.67057 7.92969 5.3125 7.92969 4.88281C7.92969 4.39453 7.80599 4.00391 7.55859 3.71094C7.3112 3.41146 6.94336 3.22591 6.45508 3.1543C6.33789 3.14128 6.10352 3.13151 5.75195 3.125C5.4069 3.11198 4.93815 3.10547 4.3457 3.10547H4.05273V6.73828Z" fill="#0199E4"/>
</svg>
